<svg xmlns="http://www.w3.org/2000/svg" width="190" height="40" fill="none">
    <path fill="#FAFAFF" d="M20 40c11.046 0 20-8.954 20-20S31.046 0 20 0 0 8.954 0 20s8.954 20 20 20Z" />
    <path fill="#1A1A1A"
        d="M11.961 19.455h5.712v2.21h-5.712v-2.21ZM12.165 26H9.411V14.1h8.993v2.21h-6.239V26ZM25.215 26.204c-1.688 0-3.009-.47-3.96-1.411-.953-.94-1.429-2.284-1.429-4.029V14.1h2.754v6.562c0 1.133.233 1.95.697 2.448.465.499 1.117.748 1.955.748.84 0 1.49-.25 1.955-.748.465-.499.697-1.315.697-2.448V14.1h2.72v6.664c0 1.745-.476 3.088-1.428 4.029-.952.94-2.272 1.411-3.96 1.411Z" />
    <path fill="#FAFAFF"
        d="M54.728 19.84h5.376v2.08h-5.376v-2.08ZM54.92 26h-2.592V14.8h8.464v2.08H54.92V26Zm5.702 0 4.992-11.2h2.56L73.182 26h-2.72l-4.096-9.888h1.024L63.278 26h-2.656Zm2.496-2.4.688-1.968h5.76l.704 1.968h-7.152ZM74.344 26V14.8h4.848c1.002 0 1.866.165 2.592.496.725.32 1.285.784 1.68 1.392.394.608.592 1.333.592 2.176 0 .832-.198 1.552-.592 2.16-.395.597-.955 1.056-1.68 1.376-.726.32-1.59.48-2.592.48h-3.408l1.152-1.136V26h-2.592Zm7.12 0-2.8-4.064h2.768L84.264 26h-2.8Zm-4.528-3.968-1.152-1.216h3.264c.8 0 1.397-.17 1.792-.512.394-.352.592-.832.592-1.44 0-.619-.198-1.099-.592-1.44-.395-.341-.992-.512-1.792-.512h-3.264l1.152-1.232v6.352ZM85.389 26v-1.68l6.928-8.352.32.944h-7.12V14.8h9.424v1.68l-6.912 8.352-.32-.944h7.472V26H85.39Zm9.983 0 4.992-11.2h2.56l5.008 11.2h-2.72l-4.096-9.888h1.024L98.028 26h-2.656Zm2.496-2.4.688-1.968h5.76l.704 1.968h-7.152Zm11.226 2.4V14.8h2.144l6.608 8.064h-1.04V14.8h2.56V26h-2.128l-6.624-8.064h1.04V26h-2.56Zm24.989.192c-1.59 0-2.832-.443-3.728-1.328-.896-.885-1.344-2.15-1.344-3.792V14.8h2.592v6.176c0 1.067.218 1.835.656 2.304.437.47 1.05.704 1.84.704.789 0 1.402-.235 1.84-.704.437-.47.656-1.237.656-2.304V14.8h2.56v6.272c0 1.643-.448 2.907-1.344 3.792-.896.885-2.139 1.328-3.728 1.328Zm7.633-.192V14.8h5.088c1.216 0 2.288.235 3.216.704.928.459 1.653 1.104 2.176 1.936.523.832.784 1.819.784 2.96 0 1.13-.261 2.117-.784 2.96-.523.832-1.248 1.483-2.176 1.952-.928.459-2 .688-3.216.688h-5.088Zm2.592-2.128h2.368c.747 0 1.392-.139 1.936-.416a3.063 3.063 0 0 0 1.28-1.216c.309-.523.464-1.136.464-1.84 0-.715-.155-1.328-.464-1.84a2.964 2.964 0 0 0-1.28-1.2c-.544-.288-1.189-.432-1.936-.432h-2.368v6.944ZM154.935 26V14.8h5.088c1.216 0 2.288.235 3.216.704.928.459 1.653 1.104 2.176 1.936.523.832.784 1.819.784 2.96 0 1.13-.261 2.117-.784 2.96-.523.832-1.248 1.483-2.176 1.952-.928.459-2 .688-3.216.688h-5.088Zm2.592-2.128h2.368c.747 0 1.392-.139 1.936-.416a3.063 3.063 0 0 0 1.28-1.216c.309-.523.464-1.136.464-1.84 0-.715-.155-1.328-.464-1.84a2.964 2.964 0 0 0-1.28-1.2c-.544-.288-1.189-.432-1.936-.432h-2.368v6.944ZM168.154 26V14.8h2.592V26h-2.592Zm5.25 0V14.8h2.144l6.608 8.064h-1.04V14.8h2.56V26h-2.128l-6.624-8.064h1.04V26h-2.56Z" />
</svg>